<svg id="Capa_1" enable-background="new 0 0 497 497" height="512" viewBox="0 0 497 497" width="512" xmlns="http://www.w3.org/2000/svg"><g><path d="m241 75h15v62h-15z" fill="#ffe8c2"/><path d="m233.5 272h30v120h-30z" fill="#ff9a42"/><path d="m233.5 242v45h30c16.569 0 30-13.432 30-30v-15z" fill="#ffba48"/><path d="m203.5 242v15c0 16.568 13.432 30 30 30 16.569 0 30-13.432 30-30v-15z" fill="#ffd185"/><path d="m278.5 167v90h30c49.25 0 49.25-60 98.5-60v-30z" fill="#ff9a42"/><path d="m377 197v-30h-287v30c49.25 0 49.25 60 98.5 60h90c49.25 0 49.25-60 98.5-60z" fill="#ffba48"/><path d="m263.5 317h-30v30h30c8.284 0 15-6.716 15-15s-6.716-15-15-15z" fill="#ffba48"/><circle cx="233.5" cy="332" fill="#ffd185" r="15"/><path d="m263.5 377h-30v45l30-15c8.284 0 15-6.716 15-15s-6.716-15-15-15z" fill="#ffba48"/><circle cx="233.5" cy="392" fill="#ffd185" r="15"/><path d="m263.5 407h-30v75h128.5v-15c-49.25 0-49.25-60-98.5-60z" fill="#ff9a42"/><path d="m233.5 407c-49.25 0-49.25 60-98.5 60v15h197v-15c-49.25 0-49.25-60-98.5-60z" fill="#ffba48"/><path d="m248.5 0-15 60 15 30c16.569 0 30-13.431 30-30 0-24.536-11.785-46.317-30-60z" fill="#ff7a3c"/><path d="m218.5 60c0 16.569 13.431 30 30 30v-90c-18.215 13.683-30 35.464-30 60z" fill="#ff9a42"/><path d="m377 137v60h30c24.853 0 45-20.147 45-45v-15z" fill="#ff7a3c"/><path d="m45 137v15c0 24.853 20.147 45 45 45h287c24.853 0 45-20.147 45-45v-15z" fill="#ff9a42"/><path d="m467 122-30 30h30c13.075 0 24.197-8.365 28.305-20.035 1.713-4.867-1.931-9.965-7.091-9.965z" fill="#ff9a42"/><path d="m467 122h-458.215c-5.16 0-8.804 5.099-7.091 9.965 4.109 11.67 15.231 20.035 28.306 20.035h407c16.569 0 30-13.431 30-30z" fill="#ffba48"/><path d="m362 467h-30l30 30h21.215c5.16 0 8.804-5.099 7.091-9.965-4.109-11.67-15.231-20.035-28.306-20.035z" fill="#ff7a3c"/><path d="m332 467h-197c-13.075 0-24.197 8.365-28.305 20.035-1.713 4.867 1.931 9.965 7.091 9.965h248.214c0-16.569-13.431-30-30-30z" fill="#ff9a42"/></g></svg>